<svg height="512" viewBox="0 0 60 60" width="512" xmlns="http://www.w3.org/2000/svg"><g id="Page-1" fill="none" fill-rule="evenodd"><g id="029---Preparing-Vegetables" fill="rgb(0,0,0)" fill-rule="nonzero"><path id="Shape" d="m58 52v-2c0-1.1045695-.8954305-2-2-2h-12c-1.1045695 0-2 .8954305-2 2v2h-14.936c1.3821234-2.4326098 2.0529486-5.2046148 1.936-8 0-5.7-2.149-10-5-10-1.7313387-.137191-3.4359675-.509269-5.067-1.106-1.2648447-.4734669-2.5877693-.7741775-3.933-.894-2.5 0-4.109 3.359-4.72 7.337-.337-.106-.669-.215-1.038-.307-2.64822403-.6663513-5.45255203-.257207-7.8 1.138-.4491666.309565-.5673602.9219935-.26564763 1.376472.30171258.4544784.91199462.583297 1.37164763.289528 1.88187613-1.0726437 4.10372117-1.3819194 6.207-.864.465.116.894.249 1.3.389-.01.154-.02.307-.028.461-3.32751055.4826159-6.4007897 2.0558338-8.738 4.473-.25995658.2510745-.3642126.6228779-.27269716.9725073.09151544.3496295.3645604.6226744.71418984.7141899.34962943.0915154.72143285-.0127406.97250732-.2726972 1.96368618-2.0321384 4.52453494-3.3847289 7.31-3.861.009.243.023.484.038.726-2.56163404 1.903732-4.5529917 4.4726456-5.758 7.428h-2.293c-1.1045695 0-2 .8954305-2 2v4c0 1.1045695.8954305 2 2 2h56c1.1045695 0 2-.8954305 2-2v-4c0-1.1045695-.8954305-2-2-2zm-14-2h12v2h-12zm-29-16c1.1412136.1345674 2.2626056.4030839 3.341.8 1.8199276.6661793 3.7253275 1.0702224 5.659 1.2 1.224 0 3 3.117 3 8s-1.776 8-3 8h-9c-1.02 0-2.421-2.443-2.86-6.437 1.007975-.6578444 2.0850865-1.2031069 3.212-1.626.3190847-.1175026.5560708-.389814.6283962-.7220653s-.0300258-.6784306-.2713962-.9179347c-1.0432404-.9362266-2.233925-1.6937507-3.524-2.242.482-3.771 1.828-6.055 2.815-6.055zm-4.68 12.939c.2457489 1.7814375.8302693 3.4993572 1.722 5.061h-5.565c.92533582-1.9296668 2.23273104-3.6514277 3.843-5.061zm47.68 11.061h-56v-4h56z"/><path id="Shape" d="m27.971 12.485-11.314-11.313c-.7501514-.75019009-1.7675983-1.17164575-2.8285-1.17164575s-2.0783486.42145566-2.8285 1.17164575l-2.828 2.828c-.7501901.75015144-1.17164575 1.76759833-1.17164575 2.8285s.42145565 2.07834856 1.17164575 2.8285l2.828 2.827 7.07 7.07c.7501514.7501901 1.7675983 1.1716458 2.8285 1.1716458s2.0783486-.4214557 2.8285-1.1716458l.707-.707 1.414 1.414-3.535 3.539c-1.1679607 1.173207-1.1679607 3.069793 0 4.243l14.252 14.25c5.076727 5.0762983 13.307273 5.0762983 18.384 0 .3903819-.3904999.3903819-1.0235001 0-1.414l-24.149-24.151-2.317-2.317c.1968927-.6871203.0006269-1.4268618-.511-1.926zm-8.486 5.657-1.414-1.414 1.414-1.415c.3693233-.3938446.3593222-1.0097448-.0225937-1.3913906s-.9978231-.3912112-1.3914063-.0216094l-1.414 1.415-3.536-3.536 1.414-1.414c.3907415-.39046532.3909653-1.02375854.0005-1.4145s-1.0237585-.39096532-1.4145-.0005l-1.414 1.414-2.121-2.121c-.37524801-.37509602-.58607293-.88392663-.58607293-1.4145s.21082492-1.03940398.58607293-1.4145l2.828-2.828c.375096-.37524801.8839266-.58607293 1.4145-.58607293s1.039404.21082492 1.4145.58607293l11.314 11.314-2.829 2.829-1.414 1.413c-.7912985.7564511-2.0377015.7564511-2.829 0zm6.364-.707 1.415-1.414 1.414 1.414-1.415 1.414zm2.122 3.536 2.121-2.122 19.851 19.851c-2.7842458 2.0813163-6.67404 1.8041126-9.135-.651l-14.959-14.957 2.12-2.12zm17.786 23.129c-2.918948.0079893-5.7197536-1.1522313-7.778-3.222l-14.251-14.251c-.3903819-.3904999-.3903819-1.0235001 0-1.414l.707-.707 14.959 14.958c3.2410735 3.2385689 8.3978734 3.525297 11.978.666l1.428 1.425c-1.9744318 1.6517426-4.4687877 2.5530823-7.043 2.545z"/><path id="Shape" d="m20.553 49.9c.2373497.1186659.5121326.1381283.7638386.0541012.251706-.084027.4596935-.2646527.5781614-.5021012 2.16-4.321.141-10.5.053-10.763-.1128959-.3394023-.398285-.5927937-.748664-.6647242-.350379-.0719304-.712517.0485281-.95.316-.2374831.2674719-.3142319.6413219-.201336.9807242.018.056 1.847 5.649.053 9.237-.1183824.2378396-.1372558.5130111-.0524551.7647867.0848007.2517755.2663045.4594578.5044551.5772133z"/></g></g></svg>