<svg xmlns="http://www.w3.org/2000/svg" height="512pt" version="1.1" viewBox="0 -31 512 512" width="512pt">
<g id="surface1">
<path d="M 497 180 L 452 180 L 452 150 L 60 150 L 60 180 L 15 180 C 6.714844 180 0 186.714844 0 195 L 0 225 C 0 261.214844 25.808594 291.511719 60 298.480469 L 60 405 C 60 429.851562 80.148438 450 105 450 L 407 450 C 431.851562 450 452 429.851562 452 405 L 452 298.480469 C 486.191406 291.511719 512 261.214844 512 225 L 512 195 C 512 186.714844 505.285156 180 497 180 Z M 60 267.238281 C 42.578125 261.023438 30 244.53125 30 225 L 30 210 L 60 210 Z M 359.03125 305.574219 C 351.191406 346.613281 317.613281 380.1875 276.578125 388.03125 C 202.738281 402.140625 138.859375 338.265625 152.96875 264.421875 C 160.8125 223.382812 194.386719 189.8125 235.421875 181.96875 C 309.265625 167.859375 373.140625 231.734375 359.03125 305.574219 Z M 482 225 C 482 244.53125 469.421875 261.023438 452 267.238281 L 452 210 L 482 210 Z M 482 225 " style=" stroke:none;fill-rule:nonzero;fill:rgb(0%,0%,0%);fill-opacity:1;" />
<path d="M 45 120 L 467 120 C 475.285156 120 482 113.285156 482 105 C 482 80.148438 461.851562 60 437 60 L 361 60 L 361 45 C 361 20.148438 340.851562 0 316 0 L 196 0 C 171.148438 0 151 20.148438 151 45 L 151 60 L 75 60 C 50.148438 60 30 80.148438 30 105 C 30 113.285156 36.714844 120 45 120 Z M 181 45 C 181 36.722656 187.722656 30 196 30 L 316 30 C 324.277344 30 331 36.722656 331 45 L 331 60 L 181 60 Z M 181 45 " style=" stroke:none;fill-rule:nonzero;fill:rgb(0%,0%,0%);fill-opacity:1;" />
<path d="M 256 210 C 264.289062 210 271 216.710938 271 225 L 271 270 L 316 270 C 324.289062 270 331 276.710938 331 285 C 331 243.648438 297.351562 210 256 210 Z M 256 210 " style=" stroke:none;fill-rule:nonzero;fill:rgb(0%,0%,0%);fill-opacity:1;" />
<path d="M 316 300 L 256 300 C 247.714844 300 241 293.285156 241 285 L 241 225 C 241 216.710938 247.710938 210 256 210 C 208.140625 210 170.601562 255.066406 183.601562 304.988281 C 190.164062 330.207031 210.792969 350.835938 236.011719 357.398438 C 285.933594 370.398438 331 332.859375 331 285 C 331 293.289062 324.289062 300 316 300 Z M 316 300 " style=" stroke:none;fill-rule:nonzero;fill:rgb(0%,0%,0%);fill-opacity:1;" />
</g>
</svg>